<svg width="61" height="61" viewBox="0 0 61 61" fill="none" xmlns="http://www.w3.org/2000/svg">
<path d="M26.6875 39.3958L24.1458 30.5" stroke="#8DBEF7" stroke-width="3" stroke-linecap="round"/>
<path d="M21.6041 11.4375L16.5208 19.0625M39.3958 11.4375L44.4791 19.0625" stroke="#8DBEF7" stroke-width="3" stroke-linecap="round"/>
<path d="M34.3125 39.3958L36.8542 30.5" stroke="#8DBEF7" stroke-width="3" stroke-linecap="round"/>
<path d="M11.4375 24.1458V24.1458C12.3292 24.1458 12.775 24.1458 13.1444 24.2998C13.4926 24.445 13.7927 24.6857 14.0099 24.9941C14.2404 25.3213 14.3371 25.7565 14.5305 26.627L18.3664 43.8886C18.7001 45.3902 18.867 46.141 19.4154 46.5809C19.9638 47.0208 20.7329 47.0208 22.2712 47.0208H38.7288C40.2671 47.0208 41.0362 47.0208 41.5846 46.5809C42.133 46.141 42.2999 45.3902 42.6336 43.8886L46.4695 26.627C46.6629 25.7565 46.7596 25.3213 46.9901 24.9941C47.2073 24.6857 47.5074 24.445 47.8556 24.2998C48.225 24.1458 48.6708 24.1458 49.5625 24.1458V24.1458" stroke="#8DBEF7" stroke-width="3" stroke-linecap="round"/>
<path d="M49.5625 24.1458H11.4375C10.934 24.1458 10.6823 24.1458 10.4736 24.1008C9.70613 23.935 9.10665 23.3355 8.94089 22.5681C8.89581 22.3594 8.89581 22.1076 8.89581 21.6042C8.89581 21.1007 8.89581 20.849 8.94089 20.6403C9.10665 19.8728 9.70613 19.2733 10.4736 19.1076C10.6823 19.0625 10.934 19.0625 11.4375 19.0625H49.5625C50.0659 19.0625 50.3177 19.0625 50.5264 19.1076C51.2938 19.2733 51.8933 19.8728 52.0591 20.6403C52.1041 20.849 52.1041 21.1007 52.1041 21.6042C52.1041 22.1076 52.1041 22.3594 52.0591 22.5681C51.8933 23.3355 51.2938 23.935 50.5264 24.1008C50.3177 24.1458 50.0659 24.1458 49.5625 24.1458Z" stroke="#8DBEF7" stroke-width="3" stroke-linecap="round"/>
</svg>
